<svg width="173" height="35" viewBox="0 0 173 35" fill="none" xmlns="http://www.w3.org/2000/svg">
<path d="M2.008 34C0.664 34 -0.0079999 33.328 -0.0079999 31.984V3.472C-0.0079999 2.128 0.664 1.456 2.008 1.456C2.888 1.456 3.624 1.888 4.216 2.752L15.544 19.792L14.68 19.936L26.104 2.752C26.648 1.888 27.464 1.456 28.552 1.456C29.64 1.456 30.184 2.128 30.184 3.472V31.984C30.184 33.328 29.512 34 28.168 34C26.824 34 26.152 33.328 26.152 31.984V7.504L27.4 7.936L17.32 22.768C16.728 23.632 15.912 24.064 14.872 24.064C14.152 24.064 13.496 23.632 12.904 22.768L2.824 7.936L4.024 8.272V31.984C4.024 33.328 3.352 34 2.008 34ZM41.9799 34C41.2919 34 40.7799 33.84 40.4439 33.52C40.1239 33.184 39.9639 32.672 39.9639 31.984V3.52C39.9639 2.816 40.1239 2.304 40.4439 1.984C40.7799 1.664 41.2919 1.504 41.9799 1.504C42.6839 1.504 43.1959 1.664 43.5159 1.984C43.8359 2.304 43.9959 2.816 43.9959 3.52V31.984C43.9959 32.672 43.8359 33.184 43.5159 33.52C43.1959 33.84 42.6839 34 41.9799 34ZM52.9155 33.568C51.8435 32.832 51.6835 31.888 52.4355 30.736L61.2195 17.776L51.9555 4.72C51.2355 3.664 51.4115 2.72 52.4835 1.888C53.5875 1.136 54.5155 1.312 55.2675 2.416L63.8595 14.464L72.4995 2.416C73.3315 1.344 74.2595 1.2 75.2835 1.984C76.3715 2.784 76.5315 3.712 75.7635 4.768L66.3075 17.92L75.3795 30.688C76.1315 31.792 75.9555 32.752 74.8515 33.568C73.7475 34.32 72.8195 34.144 72.0675 33.04L63.7155 21.28L55.7475 33.088C55.0115 34.128 54.0675 34.288 52.9155 33.568ZM92.2889 34C88.6249 34 85.9129 33.128 84.1529 31.384C82.4089 29.624 81.5369 26.912 81.5369 23.248V12.16C81.5369 8.464 82.4169 5.752 84.1769 4.024C85.9369 2.28 88.6409 1.424 92.2889 1.456H98.0489C101.729 1.456 104.441 2.328 106.185 4.072C107.929 5.816 108.801 8.528 108.801 12.208V23.248C108.801 26.912 107.929 29.624 106.185 31.384C104.441 33.128 101.729 34 98.0489 34H92.2889ZM92.2889 29.968H98.0489C99.7609 29.968 101.105 29.768 102.081 29.368C103.057 28.952 103.745 28.256 104.145 27.28C104.561 26.304 104.769 24.96 104.769 23.248V12.208C104.769 10.512 104.561 9.176 104.145 8.2C103.745 7.224 103.057 6.528 102.081 6.112C101.105 5.696 99.7609 5.488 98.0489 5.488H92.2889C90.5929 5.472 89.2569 5.664 88.2809 6.064C87.3049 6.464 86.6089 7.152 86.1929 8.128C85.7769 9.104 85.5689 10.448 85.5689 12.16V23.248C85.5689 24.96 85.7689 26.304 86.1689 27.28C86.5849 28.256 87.2809 28.952 88.2569 29.368C89.2329 29.768 90.5769 29.968 92.2889 29.968ZM138.339 34.096C137.811 34.432 137.307 34.536 136.827 34.408C136.347 34.28 135.939 33.952 135.603 33.424L128.163 21.04H121.443V31.984C121.443 33.328 120.771 34 119.427 34C118.083 34 117.411 33.328 117.411 31.984V3.472C117.411 2.128 118.083 1.456 119.427 1.456H130.659C133.587 1.456 135.827 2.24 137.379 3.808C138.947 5.36 139.731 7.6 139.731 10.528V11.968C139.731 14.512 139.139 16.544 137.955 18.064C136.771 19.568 135.059 20.504 132.819 20.872L139.107 31.36C139.715 32.48 139.459 33.392 138.339 34.096ZM121.443 17.008H130.659C132.483 17.008 133.779 16.624 134.547 15.856C135.315 15.088 135.699 13.792 135.699 11.968V10.528C135.699 8.72 135.315 7.432 134.547 6.664C133.779 5.88 132.483 5.488 130.659 5.488H121.443V17.008ZM145.675 33.808C144.395 33.312 144.011 32.432 144.523 31.168L155.947 3.04C156.427 1.984 157.179 1.456 158.203 1.456H158.299C159.339 1.504 160.043 2.032 160.411 3.04L172.027 31.168C172.539 32.432 172.171 33.312 170.923 33.808C169.659 34.304 168.779 33.936 168.283 32.704L165.691 26.416H150.739L148.267 32.704C147.771 33.952 146.907 34.32 145.675 33.808ZM152.323 22.384H164.035L158.059 7.84L152.323 22.384Z" fill="white"/>
</svg>
