<svg width="180" height="35" viewBox="0 0 180 35" fill="none" xmlns="http://www.w3.org/2000/svg">
<path d="M7.008 34C5.664 34 4.992 33.328 4.992 31.984V3.472C4.992 2.128 5.664 1.456 7.008 1.456C7.888 1.456 8.624 1.888 9.216 2.752L20.544 19.792L19.68 19.936L31.104 2.752C31.648 1.888 32.464 1.456 33.552 1.456C34.64 1.456 35.184 2.128 35.184 3.472V31.984C35.184 33.328 34.512 34 33.168 34C31.824 34 31.152 33.328 31.152 31.984V7.504L32.4 7.936L22.32 22.768C21.728 23.632 20.912 24.064 19.872 24.064C19.152 24.064 18.496 23.632 17.904 22.768L7.824 7.936L9.024 8.272V31.984C9.024 33.328 8.352 34 7.008 34ZM46.9799 34C46.2919 34 45.7799 33.84 45.4439 33.52C45.1239 33.184 44.9639 32.672 44.9639 31.984V3.52C44.9639 2.816 45.1239 2.304 45.4439 1.984C45.7799 1.664 46.2919 1.504 46.9799 1.504C47.6839 1.504 48.1959 1.664 48.5159 1.984C48.8359 2.304 48.9959 2.816 48.9959 3.52V31.984C48.9959 32.672 48.8359 33.184 48.5159 33.52C48.1959 33.84 47.6839 34 46.9799 34ZM57.9155 33.568C56.8435 32.832 56.6835 31.888 57.4355 30.736L66.2195 17.776L56.9555 4.72C56.2355 3.664 56.4115 2.72 57.4835 1.888C58.5875 1.136 59.5155 1.312 60.2675 2.416L68.8595 14.464L77.4995 2.416C78.3315 1.344 79.2595 1.2 80.2835 1.984C81.3715 2.784 81.5315 3.712 80.7635 4.768L71.3075 17.92L80.3795 30.688C81.1315 31.792 80.9555 32.752 79.8515 33.568C78.7475 34.32 77.8195 34.144 77.0675 33.04L68.7155 21.28L60.7475 33.088C60.0115 34.128 59.0675 34.288 57.9155 33.568ZM97.2889 34C93.6249 34 90.9129 33.128 89.1529 31.384C87.4089 29.624 86.5369 26.912 86.5369 23.248V12.16C86.5369 8.464 87.4169 5.752 89.1769 4.024C90.9369 2.28 93.6409 1.424 97.2889 1.456H103.049C106.729 1.456 109.441 2.328 111.185 4.072C112.929 5.816 113.801 8.528 113.801 12.208V23.248C113.801 26.912 112.929 29.624 111.185 31.384C109.441 33.128 106.729 34 103.049 34H97.2889ZM97.2889 29.968H103.049C104.761 29.968 106.105 29.768 107.081 29.368C108.057 28.952 108.745 28.256 109.145 27.28C109.561 26.304 109.769 24.96 109.769 23.248V12.208C109.769 10.512 109.561 9.176 109.145 8.2C108.745 7.224 108.057 6.528 107.081 6.112C106.105 5.696 104.761 5.488 103.049 5.488H97.2889C95.5929 5.472 94.2569 5.664 93.2809 6.064C92.3049 6.464 91.6089 7.152 91.1929 8.128C90.7769 9.104 90.5689 10.448 90.5689 12.16V23.248C90.5689 24.96 90.7689 26.304 91.1689 27.28C91.5849 28.256 92.2809 28.952 93.2569 29.368C94.2329 29.768 95.5769 29.968 97.2889 29.968ZM143.339 34.096C142.811 34.432 142.307 34.536 141.827 34.408C141.347 34.28 140.939 33.952 140.603 33.424L133.163 21.04H126.443V31.984C126.443 33.328 125.771 34 124.427 34C123.083 34 122.411 33.328 122.411 31.984V3.472C122.411 2.128 123.083 1.456 124.427 1.456H135.659C138.587 1.456 140.827 2.24 142.379 3.808C143.947 5.36 144.731 7.6 144.731 10.528V11.968C144.731 14.512 144.139 16.544 142.955 18.064C141.771 19.568 140.059 20.504 137.819 20.872L144.107 31.36C144.715 32.48 144.459 33.392 143.339 34.096ZM126.443 17.008H135.659C137.483 17.008 138.779 16.624 139.547 15.856C140.315 15.088 140.699 13.792 140.699 11.968V10.528C140.699 8.72 140.315 7.432 139.547 6.664C138.779 5.88 137.483 5.488 135.659 5.488H126.443V17.008ZM150.675 33.808C149.395 33.312 149.011 32.432 149.523 31.168L160.947 3.04C161.427 1.984 162.179 1.456 163.203 1.456H163.299C164.339 1.504 165.043 2.032 165.411 3.04L177.027 31.168C177.539 32.432 177.171 33.312 175.923 33.808C174.659 34.304 173.779 33.936 173.283 32.704L170.691 26.416H155.739L153.267 32.704C152.771 33.952 151.907 34.32 150.675 33.808ZM157.323 22.384H169.035L163.059 7.84L157.323 22.384Z" fill="#E28413"/>
</svg>
